<?xml version="1.0" encoding="UTF-8"?>
<svg xmlns="http://www.w3.org/2000/svg" xmlns:xlink="http://www.w3.org/1999/xlink" version="1.1" style="" xml:space="preserve" width="876" height="227"><rect id="backgroundrect" width="100%" height="100%" x="0" y="0" fill="none" stroke="none"></rect>
<style type="text/css">
	.st0{fill:#5b5b5b;}
</style>

<g class="currentLayer" style=""><title>Layer 1</title><g id="svg_1" class="selected" opacity="1" fill-opacity="1" fill="#0083d3">
	<path d="M326.5267105102539,33.700164794921875 c-97.0999984741211,0 -193.60000610351562,0 -290.79998779296875,0 c1.600000023841858,4.099999904632568 2.799999952316284,7.800000190734863 4.400000095367432,11.300000190734863 c4.699999809265137,9.800000190734863 11.800000190734863,17.399999618530273 22,21.5 c3.4000000953674316,1.399999976158142 7.199999809265137,2.200000047683716 10.800000190734863,2.299999952316284 c19.299999237060547,0.30000001192092896 38.599998474121094,0.30000001192092896 57.900001525878906,0.20000000298023224 c11.5,-0.10000000149011612 20.299999237060547,4.800000190734863 26.399999618530273,14.300000190734863 c3.5999999046325684,5.599999904632568 6.599999904632568,11.399999618530273 10.300000190734863,17.799999237060547 c-26,0 -50.900001525878906,0 -76.0999984741211,0 c2,7.5 5.300000190734863,13.899999618530273 10.100000381469727,19.600000381469727 c3.799999952316284,4.5 8.199999809265137,8 13.5,10.600000381469727 c4.199999809265137,2.0999999046325684 8.600000381469727,3.299999952316284 13.399999618530273,3.200000047683716 c17.600000381469727,-0.20000000298023224 35.29999923706055,-0.10000000149011612 52.900001525878906,0 c3.0999999046325684,0 6.199999809265137,0.30000001192092896 9.300000190734863,0.5 c6.699999809265137,0.5 12.300000190734863,3.299999952316284 16.899999618530273,8.100000381469727 c6.400000095367432,6.800000190734863 10.699999809265137,14.699999809265137 14.300000190734863,23.5 c-8.5,0 -16.700000762939453,0 -25.5,0 c1,1.2000000476837158 1.5,2 2.0999999046325684,2.700000047683716 c10.5,12.100000381469727 24,18.600000381469727 39.400001525878906,21.399999618530273 c15.5,2.9000000953674316 30.899999618530273,2.299999952316284 46.400001525878906,-0.30000001192092896 c1.2999999523162842,-0.20000000298023224 2.0999999046325684,-0.5 2.0999999046325684,-2.200000047683716 c-0.10000000149011612,-16.299999237060547 0,-32.5 0,-49.20000076293945 c-14.699999809265137,0 -29.399999618530273,0 -44.400001525878906,0 c4.300000190734863,-10.5 9.100000381469727,-19.899999618530273 17.200000762939453,-27.299999237060547 c4.599999904632568,-4.199999809265137 10.199999809265137,-5.800000190734863 16.100000381469727,-5.900000095367432 c16.5,-0.30000001192092896 33.099998474121094,-0.30000001192092896 49.599998474121094,-0.4000000059604645 c0.4000000059604645,0 0.8999999761581421,0.20000000298023224 1.5,0.30000001192092896 c0,1 0,1.899999976158142 0,2.799999952316284 c0,34.79999923706055 0,69.69999694824219 0,104.5 c0,1.7000000476837158 -0.20000000298023224,2.799999952316284 -2.0999999046325684,3.4000000953674316 c-34.099998474121094,9.899999618530273 -68.69999694824219,13.699999809265137 -103.69999694824219,6.099999904632568 c-23.5,-5.099999904632568 -44,-16 -58.79999923706055,-35.5 c-4.199999809265137,-5.5 -7.5,-11.899999618530273 -10.899999618530273,-18 c-1,-1.7999999523162842 -1.899999976158142,-2.4000000953674316 -3.9000000953674316,-2.4000000953674316 c-9.600000381469727,0 -19.200000762939453,0.5 -28.700000762939453,-1.5 c-14.399999618530273,-3 -26.700000762939453,-9.199999809265137 -36.79999923706055,-20.200000762939453 c-12,-13.100000381469727 -20.700000762939453,-27.700000762939453 -24.5,-45.20000076293945 c-0.20000000298023224,-0.800000011920929 -0.8999999761581421,-2 -1.600000023841858,-2.200000047683716 c-21.5,-6.5 -34.79999923706055,-22.200000762939453 -45.099998474121094,-40.900001525878906 c-9.100000381469727,-16.700000762939453 -11.899999618530273,-34.70000076293945 -9.300000190734863,-53.599998474121094 c0.4000000059604645,-2.5999999046325684 1.5,-3 3.700000047683716,-3 c24.100000381469727,0.10000000149011612 48.29999923706055,0 72.4000015258789,0 c56.099998474121094,0 112.30000305175781,0 168.39999389648438,0 c15.699999809265137,0 31.399999618530273,0.10000000149011612 47.20000076293945,0.20000000298023224 c9,0.10000000149011612 16.100000381469727,4 21.600000381469727,11.100000381469727 C319.5267105102539,18.10015869140625 323.32669830322266,25.400177001953125 326.5267105102539,33.700164794921875 z" id="svg_2" opacity="1" fill="#0083d3"></path>
	<path d="M432.0266799926758,122.3001708984375 c0,-4.300000190734863 0,-8 0,-11.899999618530273 c9.5,0 18.799999237060547,0 28.200000762939453,0 c0,37.5 0,75 0,112.69999694824219 c-9.300000190734863,0 -18.600000381469727,0 -28.200000762939453,0 c0,-3.700000047683716 0,-7.300000190734863 0,-11.399999618530273 c-0.699999988079071,0.4000000059604645 -1,0.6000000238418579 -1.2000000476837158,0.800000011920929 c-22.100000381469727,21.100000381469727 -58.099998474121094,17.700000762939453 -77.4000015258789,-10.800000190734863 c-9.399999618530273,-13.800000190734863 -11.399999618530273,-29.200000762939453 -9.399999618530273,-45.400001525878906 c2.0999999046325684,-16.299999237060547 9.600000381469727,-29.600000381469727 22.799999237060547,-39.400001525878906 c18.700000762939453,-13.899999618530273 44.900001525878906,-12.5 62.5,3.0999999046325684 C430.0266799926758,120.60015869140625 430.72669219970703,121.2001953125 432.0266799926758,122.3001708984375 zM433.5266799926758,165.400146484375 c-0.10000000149011612,-1.2000000476837158 -0.30000001192092896,-3.299999952316284 -0.5,-5.400000095367432 c-1.7000000476837158,-14 -12.199999809265137,-24.5 -26.600000381469727,-26.5 c-13.5,-1.899999976158142 -26.399999618530273,5.300000190734863 -31.899999618530273,18.100000381469727 c-3.299999952316284,7.800000190734863 -3.799999952316284,16 -1.7999999523162842,24.200000762939453 c2.9000000953674316,11.800000190734863 9.899999618530273,20.200000762939453 21.899999618530273,23.299999237060547 c11.899999618530273,3.0999999046325684 22.5,0.10000000149011612 30.799999237060547,-9.199999809265137 C431.4267044067383,183.10015869140625 433.3267288208008,175.00018310546875 433.5266799926758,165.400146484375 z" id="svg_3" opacity="1" fill="#0083d3"></path>
	<path d="M781.6267166137695,174.400146484375 c-30.399999618530273,0 -60.599998474121094,0 -91.0999984741211,0 c1.899999976158142,11 7.099999904632568,19.299999237060547 17.100000381469727,24.200000762939453 c10.300000190734863,5 28.299999237060547,5.800000190734863 42.70000076293945,-8.300000190734863 c7.800000190734863,3.5999999046325684 15.699999809265137,7.300000190734863 23.799999237060547,11.100000381469727 c-5.900000095367432,8.399999618530273 -13.100000381469727,15.100000381469727 -22.399999618530273,19 c-18.200000762939453,7.599999904632568 -36.900001525878906,8.399999618530273 -54.900001525878906,0.4000000059604645 c-21.399999618530273,-9.5 -32.599998474121094,-26.700000762939453 -33.70000076293945,-50.099998474121094 c-1.100000023841858,-24.399999618530273 8.199999809265137,-43.79999923706055 29.700000762939453,-56.099998474121094 c25.799999237060547,-14.699999809265137 74.0999984741211,-9.100000381469727 86.4000015258789,35.099998474121094 C781.6267166137695,157.50018310546875 782.1267166137695,165.7001953125 781.6267166137695,174.400146484375 zM752.8267288208008,152.3001708984375 c-2.200000047683716,-11.699999809265137 -15.800000190734863,-20.899999618530273 -30.600000381469727,-20.799999237060547 c-14.300000190734863,0.10000000149011612 -28,9.600000381469727 -29.799999237060547,20.799999237060547 C712.4267044067383,152.3001708984375 732.5266799926758,152.3001708984375 752.8267288208008,152.3001708984375 z" id="svg_4" opacity="1" fill="#0083d3"></path>
	<path d="M489.4267044067383,110.3001708984375 c9.699999809265137,0 19,0 28.600000381469727,0 c0,1.2000000476837158 0,2.200000047683716 0,3.299999952316284 c0,17.899999618530273 -0.10000000149011612,35.79999923706055 0.10000000149011612,53.70000076293945 c0,5.400000095367432 0.4000000059604645,10.800000190734863 1.2999999523162842,16.100000381469727 c2.0999999046325684,11.399999618530273 10,17.399999618530273 21.399999618530273,16.700000762939453 c10.5,-0.6000000238418579 17.899999618530273,-8.100000381469727 18.700000762939453,-19.299999237060547 c0.4000000059604645,-4.900000095367432 0.6000000238418579,-9.899999618530273 0.6000000238418579,-14.800000190734863 c0.10000000149011612,-17.5 0,-35.099998474121094 0,-52.599998474121094 c0,-1 0,-2 0,-3.0999999046325684 c9.600000381469727,0 18.799999237060547,0 28.5,0 c0,1 0,1.899999976158142 0,2.9000000953674316 c0,16.700000762939453 0.30000001192092896,33.5 -0.20000000298023224,50.20000076293945 c-0.20000000298023224,9.5 -0.800000011920929,19.100000381469727 -2.5999999046325684,28.299999237060547 c-3.700000047683716,18.5 -18.799999237060547,31.600000381469727 -37.5,33.70000076293945 c-8.600000381469727,1 -17.200000762939453,0.8999999761581421 -25.600000381469727,-1.2999999523162842 c-17.200000762939453,-4.400000095367432 -29.600000381469727,-18.700000762939453 -31.700000762939453,-36.900001525878906 c-1,-8.300000190734863 -1.5,-16.700000762939453 -1.600000023841858,-25.100000381469727 c-0.30000001192092896,-16.299999237060547 -0.10000000149011612,-32.5 -0.10000000149011612,-48.79999923706055 C489.4267044067383,112.3001708984375 489.4267044067383,111.400146484375 489.4267044067383,110.3001708984375 z" id="svg_5" opacity="1" fill="#0083d3"></path>
	<path d="M795.5266799926758,206.3001708984375 c5.800000190734863,-6.5 11.600000381469727,-12.800000190734863 17.5,-19.299999237060547 c4.300000190734863,4.900000095367432 9.300000190734863,8.699999809265137 15.199999809265137,11.199999809265137 c4.099999904632568,1.7000000476837158 8.399999618530273,2.700000047683716 12.800000190734863,1.399999976158142 c1.5,-0.4000000059604645 3.0999999046325684,-1.100000023841858 4.400000095367432,-2.0999999046325684 c4.199999809265137,-2.9000000953674316 5,-7.699999809265137 1.5,-11.300000190734863 c-2.700000047683716,-2.799999952316284 -6.199999809265137,-5.099999904632568 -9.600000381469727,-7.099999904632568 c-4,-2.4000000953674316 -8.5,-4 -12.399999618530273,-6.400000095367432 c-5,-3.0999999046325684 -10.199999809265137,-6.199999809265137 -14.5,-10.199999809265137 c-18.5,-16.799999237060547 -12.100000381469727,-43.599998474121094 10.800000190734863,-52.400001525878906 c18.299999237060547,-7 41.79999923706055,0.20000000298023224 52.099998474121094,15.699999809265137 c-5.800000190734863,5.800000190734863 -11.600000381469727,11.600000381469727 -17.200000762939453,17.399999618530273 c-3.0999999046325684,-2.200000047683716 -6.199999809265137,-4.800000190734863 -9.600000381469727,-6.900000095367432 c-4.199999809265137,-2.5999999046325684 -8.899999618530273,-3.799999952316284 -13.899999618530273,-2.5 c-3,0.800000011920929 -5.400000095367432,2.4000000953674316 -6,5.699999809265137 c-0.5,3.0999999046325684 1.2999999523162842,5.300000190734863 3.799999952316284,6.699999809265137 c5.400000095367432,2.9000000953674316 10.899999618530273,5.599999904632568 16.200000762939453,8.5 c5,2.799999952316284 10.100000381469727,5.5 14.800000190734863,8.800000190734863 c11.100000381469727,7.699999809265137 15.600000381469727,18.700000762939453 14,31.899999618530273 c-1.7000000476837158,13.5 -9.600000381469727,22.5 -22,27.399999618530273 c-16,6.199999809265137 -40.099998474121094,4.900000095367432 -55.29999923706055,-13.100000381469727 C797.226692199707,208.50018310546875 796.4267044067383,207.50018310546875 795.5266799926758,206.3001708984375 z" id="svg_6" opacity="1" fill="#0083d3"></path>
	<path d="M642.5266799926758,223.10015869140625 c-9.399999618530273,0 -18.600000381469727,0 -28,0 c0,-52.20000076293945 0,-104.30000305175781 0,-156.60000610351562 c9.199999809265137,0 18.5,0 28,0 C642.5266799926758,118.60015869140625 642.5266799926758,170.7001953125 642.5266799926758,223.10015869140625 z" id="svg_7" opacity="1" fill="#0083d3"></path>
</g></g></svg>
